PathFileType	4	(X/Y/Z)	Run_500 02
DataRate	CameraRate	NumFrames	NumMarkers	Units	OrigDataRate	OrigDataStartFrame	OrigNumFrames
120	120	4	42	mm	120	136	128
Frame#	Time	LASI			RASI			LPSI			RPSI			RTH1			RTH2			RTH3			LTH1			LTH2			LTH3			RTB1			RTB2			RTB3			LTB1			LTB2			LTB3			RCAL			RTOE			RMT5			LCAL			LTOE			LMT5			LACR			RACR			CLAV			C7			RUA1			RUA2			RUA3			RLEL			RMEL			LUA1			LUA2			LUA3			LLEL			LMEL			RFAsuperior			RFAradius			RFAulna			LFAsuperior			LFAradius			LFAulna			
		X1	Y1	Z1	X2	Y2	Z2	X3	Y3	Z3	X4	Y4	Z4	X5	Y5	Z5	X6	Y6	Z6	X7	Y7	Z7	X8	Y8	Z8	X9	Y9	Z9	X10	Y10	Z10	X11	Y11	Z11	X12	Y12	Z12	X13	Y13	Z13	X14	Y14	Z14	X15	Y15	Z15	X16	Y16	Z16	X17	Y17	Z17	X18	Y18	Z18	X19	Y19	Z19	X20	Y20	Z20	X21	Y21	Z21	X22	Y22	Z22	X23	Y23	Z23	X24	Y24	Z24	X25	Y25	Z25	X26	Y26	Z26	X27	Y27	Z27	X28	Y28	Z28	X29	Y29	Z29	X30	Y30	Z30	X31	Y31	Z31	X32	Y32	Z32	X33	Y33	Z33	X34	Y34	Z34	X35	Y35	Z35	X36	Y36	Z36	X37	Y37	Z37	X38	Y38	Z38	X39	Y39	Z39	X40	Y40	Z40	X41	Y41	Z41	X42	Y42	Z42	

136	1.225	811.355864	999.274305	-511.551134	813.933399	1031.32667	-276.423444	651.670255	1050.252474	-420.851358	654.512468	1053.244176	-332.173268	854.445883	884.778087	-216.641493	975.30581	837.78463	-234.639791	993.62752	698.753526	-239.759546	705.306093	876.691189	-553.5369459999999	696.739186	753.724408	-549.516694	566.720072	667.437583	-530.16116	1060.930582	519.021796	-296.789047	996.00453	471.367571	-246.864342	971.390124	358.958586	-316.869274	457.936074	439.523549	-472.583932	346.18471	406.751628	-520.710831	298.797941	331.5188	-451.633588	816.994686	261.338873	-337.51267	1025.733858	194.036883	-317.937705	978.7594319999999	184.324017	-231.963194	158.638452	361.743704	-450.572608	216.714094	155.432912	-416.766019	157.038896	154.53215	-489.14581	852.1898200000001	1476.019813	-550.531765	742.965065	1490.514714	-210.640168	877.571116	1436.410966	-321.260941	762.702206	1519.149584	-391.885761	672.209601	1438.668964	-140.22454	658.616012	1372.528252	-117.982158	557.869465	1405.438252	-127.447161	530.482218	1338.833403	-63.472233	500.625674	1310.78781	-141.148884	851.403468	1404.002847	-612.867196	795.62342	1333.20105	-633.415789	867.861327	1316.481592	-655.3946120000001	878.801652	1214.776523	-704.2700160000001	820.73814	1157.518184	-660.51185	587.816318	1283.989936	-36.787581	709.316833	1160.435834	-38.28922	648.14721	1131.997729	-23.508782	930.551239	1241.719177	-658.308521	983.7008530000001	1289.624677	-496.583373	1018.006247	1234.512846	-512.638908	
137	1.233333	812.685239	1002.770414	-509.698762	812.835734	1032.512342	-275.584053	652.596179	1053.320002	-422.503475	654.755545	1056.478253	-333.482886	850.330312	882.652052	-215.436376	973.120042	835.6629840000001	-236.099397	989.4879529999999	693.702164	-240.384989	709.040018	878.1734	-553.263328	702.081408	753.610526	-547.518807	572.167297	665.994873	-532.298379	1068.273958	512.214379	-295.914597	1007.74367	457.585998	-247.289751	997.281331	343.288891	-317.891072	452.101991	445.243261	-471.428425	338.56725	420.306216	-520.125994	284.156438	351.690691	-449.880285	855.290005	227.86073	-339.647319	1071.25923	187.953506	-321.447761	1026.413171	171.790614	-234.944563	146.800771	392.676978	-452.854289	188.200712	184.104393	-409.922152	130.560696	184.550701	-483.089635	856.1719859999999	1478.477111	-547.842793	742.031465	1491.376729	-210.044463	878.0797	1437.992962	-318.671601	764.062098	1520.728284	-390.538751	671.160305	1440.505926	-139.193869	657.244766	1374.220011	-117.253141	556.787366	1408.246097	-126.689783	528.084161	1342.012177	-63.64199	499.171762	1313.851026	-141.251641	855.117409	1407.979689	-611.063689	798.2945120000001	1340.238401	-635.057778	870.658957	1320.56106	-654.534998	879.136962	1218.629874	-704.364032	816.793888	1163.401717	-663.778566	584.887164	1287.847772	-35.078715	707.406359	1164.667529	-33.475092	646.067018	1136.345827	-19.005845	930.704532	1242.658854	-656.584727	979.657283	1285.605243	-491.498992	1011.766261	1229.119295	-508.056322	
138	1.241667	813.770121	1005.9631	-507.999283	811.338275	1033.353058	-274.273198	653.318454	1055.763585	-423.684637	654.9898030000001	1058.838594	-334.668056	846.415228	879.499569	-214.175826	970.794965	830.625796	-238.1397	983.340333	685.950417	-240.942433	713.405363	877.462321	-552.690889	709.231231	751.808466	-544.144901	579.3844329999999	662.773873	-534.166214	1072.964739	503.513695	-295.331444	1017.145835	442.903948	-248.141866	1020.50096	328.434486	-318.664946	448.500097	450.909032	-470.383475	333.420938	434.676063	-519.582345	272.482322	373.399582	-448.412007	891.837753	199.148378	-341.101365	1111.17707	183.108079	-325.293033	1069.51911	161.779277	-237.980723	137.556652	424.677077	-456.502408	164.101024	216.723849	-402.164601	108.381618	216.760947	-476.420107	859.892516	1480.005828	-545.408606	741.589935	1491.723458	-209.358573	878.692583	1438.950621	-316.241888	765.752689	1521.893594	-389.294616	670.6327209999999	1441.545367	-138.019742	656.668778	1374.978614	-116.345638	556.392334	1409.591924	-125.605351	526.7786	1343.580144	-63.511686	498.852153	1315.075532	-141.059595	858.2065	1410.936052	-609.338779	800.584781	1346.306211	-636.158875	872.3068940000001	1323.59866	-653.771754	877.702715	1221.521399	-704.691613	811.473988	1168.803737	-666.783156	583.227909	1290.184482	-33.305998	706.9121709999999	1167.604035	-28.732293	645.417272	1139.330297	-14.562112	929.359493	1242.333814	-655.445428	975.212412	1279.961531	-487.726719	1004.917844	1222.222165	-504.954969	
139	1.25	814.808991	1008.42731	-506.678071	809.567493	1033.936978	-272.533371	654.041187	1057.513263	-424.478073	655.098201	1059.908553	-335.768341	843.120822	875.825316	-213.033924	967.808255	822.532877	-240.018236	975.0328909999999	675.910377	-241.875304	718.104341	875.149681	-552.041005	717.200732	749.07855	-540.432679	587.952277	658.414571	-535.73799	1075.198487	493.982597	-295.710361	1024.796704	428.669517	-249.457335	1040.449498	315.326973	-319.655011	447.167028	456.481403	-469.510434	331.191888	449.408726	-519.115817	264.383891	396.063573	-447.437391	924.971133	175.726878	-342.324833	1144.981787	179.245386	-329.051825	1106.681204	153.930276	-240.981438	132.727422	457.558249	-460.850028	144.561948	252.072123	-394.802513	90.027444	251.180334	-470.064279	863.179367	1480.615744	-543.164172	741.678576	1491.416886	-208.422863	879.260442	1439.09656	-314.061327	767.622402	1522.619131	-388.07564	670.514258	1441.792054	-136.803546	656.805977	1374.83994	-115.181645	556.626377	1409.425321	-124.353703	526.532061	1343.538933	-63.018371	499.544149	1314.384042	-140.526524	860.58209	1412.860607	-607.689124	802.2222860000001	1351.195125	-636.563362	872.750873	1325.517354	-653.097454	874.530176	1223.473888	-705.233351	804.742896	1173.624147	-669.353838	582.902481	1291.021012	-31.525772	707.808763	1169.302827	-24.193128	646.217577	1141.00588	-10.185688	926.490369	1240.810967	-654.89945	970.458067	1272.74831	-485.256998	997.44214	1213.780019	-503.044721	
